<svg xmlns="http://www.w3.org/2000/svg" width="12" height="12" viewBox="0 0 12 12"><g><g><path fill="#9d2929" d="M11.74 5.21a.855.855 0 0 0 .217-.882.855.855 0 0 0-.695-.586L8.357 3.32a.38.38 0 0 1-.286-.208L6.77.48a.855.855 0 0 0-.77-.48.855.855 0 0 0-.772.48l-1.3 2.632a.38.38 0 0 1-.286.208l-2.905.422a.855.855 0 0 0-.695.586.855.855 0 0 0 .217.882l2.103 2.05a.38.38 0 0 1 .11.336l-.497 2.893a.843.843 0 0 0 .188.698.87.87 0 0 0 1.06.21l2.6-1.367a.39.39 0 0 1 .353 0l2.599 1.367a.863.863 0 0 0 1.248-.907l-.496-2.894a.38.38 0 0 1 .11-.336z"/></g></g></svg>