<svg xmlns="http://www.w3.org/2000/svg" width="12" height="12" viewBox="0 0 12 12"><g><g><path fill="#9d2929" d="M9.637 7.26a.38.38 0 0 0-.11.336l.497 2.894a.855.855 0 0 1-.342.841.857.857 0 0 1-.906.066l-2.6-1.366a.38.38 0 0 0-.353 0l-2.598 1.366a.853.853 0 0 1-.907-.066.855.855 0 0 1-.342-.841l.496-2.894a.38.38 0 0 0-.11-.336L.26 5.21a.855.855 0 0 1-.217-.882.855.855 0 0 1 .694-.585l2.906-.423a.38.38 0 0 0 .286-.208L5.23.48A.855.855 0 0 1 6 0c.33 0 .626.184.772.48L8.07 3.112a.38.38 0 0 0 .286.208l2.905.423a.855.855 0 0 1 .695.585.855.855 0 0 1-.217.882zm-.583.418a.86.86 0 0 1 .248-.762l2.102-2.05a.373.373 0 0 0 .096-.39.373.373 0 0 0-.307-.258l-2.905-.422a.859.859 0 0 1-.648-.47L6.34.691A.373.373 0 0 0 6 .481a.373.373 0 0 0-.341.211l-1.3 2.633a.86.86 0 0 1-.647.47l-2.906.423a.373.373 0 0 0-.306.259.372.372 0 0 0 .096.39l2.102 2.049a.86.86 0 0 1 .248.762L2.45 10.57a.373.373 0 0 0 .15.372c.12.087.27.097.401.029L5.6 9.606a.862.862 0 0 1 .802 0l2.598 1.366c.131.068.28.058.4-.03a.373.373 0 0 0 .152-.37z"/></g></g></svg>